<?xml version="1.0" standalone="no"?>
<!DOCTYPE svg PUBLIC "-//W3C//DTD SVG 20010904//EN"
 "http://www.w3.org/TR/2001/REC-SVG-20010904/DTD/svg10.dtd">
<svg version="1.0" xmlns="http://www.w3.org/2000/svg"
 width="512.000000pt" height="512.000000pt" viewBox="0 0 512.000000 512.000000"
 preserveAspectRatio="xMidYMid meet">
<metadata>
Created by potrace 1.14, written by Peter Selinger 2001-2017
</metadata>
<g transform="translate(0.000000,512.000000) scale(0.100000,-0.100000)"
fill="#000000" stroke="none">
<path d="M2399 5116 c-2 -2 -44 -6 -92 -10 -49 -3 -92 -8 -95 -10 -4 -2 -32
-7 -62 -11 -100 -12 -406 -88 -420 -104 -3 -3 -14 -8 -25 -9 -11 -2 -33 -10
-50 -17 -42 -18 -68 -28 -84 -31 -8 -1 -18 -9 -22 -16 -5 -7 -9 -9 -9 -4 0 5
-6 3 -13 -3 -8 -6 -17 -8 -20 -4 -4 3 -7 0 -7 -7 0 -7 -3 -11 -6 -8 -5 5 -87
-35 -199 -96 -51 -28 -180 -111 -183 -118 -2 -5 -10 -8 -17 -8 -7 0 -15 -4
-17 -8 -1 -4 -24 -23 -50 -42 -27 -18 -48 -37 -48 -41 0 -4 -8 -10 -17 -13
-30 -10 -247 -216 -333 -317 -25 -28 -50 -57 -56 -63 -27 -29 -124 -164 -124
-174 0 -5 -4 -12 -8 -14 -13 -5 -82 -111 -82 -125 0 -7 -5 -13 -11 -13 -5 0
-7 -4 -4 -10 3 -5 2 -10 -2 -10 -9 0 -54 -84 -52 -96 0 -4 -3 -10 -8 -13 -9
-6 -89 -176 -95 -201 -2 -8 -6 -17 -10 -20 -4 -3 -9 -15 -11 -25 -4 -18 -8
-32 -38 -106 -5 -14 -9 -30 -7 -35 1 -5 -4 -20 -11 -32 -7 -13 -15 -36 -18
-50 -8 -41 -11 -57 -13 -57 -2 0 -6 -20 -14 -65 -4 -19 -9 -43 -12 -52 -6 -20
-12 -51 -19 -98 -3 -20 -8 -47 -10 -60 -26 -127 -26 -639 -1 -711 3 -8 7 -32
9 -54 2 -22 6 -46 11 -53 4 -6 5 -12 2 -12 -2 0 2 -26 9 -58 8 -33 16 -70 19
-83 12 -57 15 -70 22 -81 4 -7 9 -26 11 -42 2 -17 8 -35 13 -40 6 -6 10 -20
10 -33 0 -13 4 -23 8 -23 5 0 9 -6 10 -12 2 -21 8 -41 24 -78 8 -19 21 -52 28
-73 8 -20 18 -37 23 -37 4 0 6 -3 3 -8 -4 -6 34 -88 100 -212 16 -32 52 -89
71 -115 5 -6 17 -26 28 -45 23 -41 106 -154 117 -158 5 -2 8 -8 8 -14 0 -6 11
-21 26 -34 14 -13 23 -24 20 -24 -19 0 233 -248 349 -345 90 -74 248 -185 264
-185 6 0 11 -4 11 -9 0 -5 15 -14 33 -22 17 -7 34 -16 37 -19 9 -12 163 -90
177 -90 7 0 13 -4 13 -10 0 -5 7 -10 15 -10 14 0 53 -18 65 -30 3 -3 14 -7 25
-8 10 -2 37 -12 60 -22 59 -26 79 -33 88 -31 5 1 23 -5 40 -13 56 -26 260 -75
374 -91 21 -3 48 -8 59 -10 124 -27 544 -27 714 0 208 33 463 99 541 141 14 7
28 11 31 8 3 -2 11 2 17 10 7 8 19 12 27 9 8 -3 14 0 14 7 0 7 6 10 14 7 8 -3
16 -1 18 4 2 6 10 11 18 12 24 4 169 78 253 129 43 26 83 48 88 48 5 0 9 4 9
9 0 5 8 12 19 16 10 3 28 13 39 23 11 9 46 35 77 57 32 22 76 57 99 79 23 21
42 37 42 35 2 -5 129 116 186 178 26 28 49 48 52 45 3 -3 6 -1 6 4 0 11 45 69
73 93 9 9 17 21 17 28 0 7 7 13 17 13 9 0 14 3 10 6 -3 4 9 25 27 48 59 74
126 178 180 281 12 22 23 42 26 45 6 6 54 102 55 110 1 3 11 24 23 48 13 23
20 47 17 52 -3 6 -1 10 4 10 6 0 11 7 11 15 0 8 4 15 8 15 5 0 9 6 9 13 0 13
38 128 53 162 5 11 15 40 21 65 7 25 14 50 15 55 2 6 6 26 9 45 3 19 10 46 15
60 5 14 11 43 14 65 3 22 8 52 11 68 3 15 7 38 9 51 27 157 28 602 1 726 -3
14 -8 39 -10 55 -5 46 -46 239 -53 250 -3 5 -7 16 -8 25 -4 27 -9 45 -16 55
-3 6 -9 27 -13 48 -4 20 -10 37 -14 37 -4 0 -7 10 -8 21 -1 12 -12 42 -24 68
-12 25 -23 51 -24 56 -12 52 -136 291 -218 420 -42 66 -119 169 -129 173 -4 2
-8 8 -8 13 0 6 -10 21 -22 33 -13 13 -45 50 -73 82 -104 119 -337 334 -364
334 -6 0 -11 4 -11 9 0 9 -176 131 -190 131 -4 0 -10 4 -12 8 -3 8 -120 75
-203 115 -22 11 -56 28 -75 38 -35 17 -136 59 -155 64 -5 1 -23 7 -38 13 -15
7 -40 15 -55 18 -15 4 -31 10 -37 14 -9 7 -62 21 -82 22 -5 0 -19 5 -33 10
-14 5 -36 12 -50 14 -14 3 -41 9 -60 14 -19 5 -53 12 -75 15 -22 4 -47 8 -55
10 -8 3 -37 7 -65 10 -27 3 -61 8 -75 11 -30 6 -435 15 -441 10z"/>
</g>
</svg>
